<?xml version="1.0" encoding="utf-8"?>
<!-- Generator: Adobe Illustrator 22.0.1, SVG Export Plug-In . SVG Version: 6.00 Build 0)  -->
<svg version="1.1" id="Layer_1" xmlns="http://www.w3.org/2000/svg" xmlns:xlink="http://www.w3.org/1999/xlink" x="0px" y="0px"
	 viewBox="0 0 100 100" enable-background="new 0 0 100 100" xml:space="preserve">
<g>
	<path fill="#FFFFFF" d="M73.7,98.4H26.3c-4,0-7.3-3.3-7.3-7.3V8.9c0-4,3.3-7.3,7.3-7.3h47.5c4,0,7.3,3.3,7.3,7.3v82.2
		C81,95.1,77.8,98.4,73.7,98.4z M26.3,5.6c-1.8,0-3.3,1.5-3.3,3.3v82.2c0,1.8,1.5,3.3,3.3,3.3h47.5c1.8,0,3.3-1.5,3.3-3.3V8.9
		c0-1.8-1.5-3.3-3.3-3.3H26.3z"/>
	<path fill="#FFFFFF" d="M79,19.2H21c-1.1,0-2-0.9-2-2s0.9-2,2-2h58c1.1,0,2,0.9,2,2S80.1,19.2,79,19.2z"/>
	<path fill="#FFFFFF" d="M79,79H21c-1.1,0-2-0.9-2-2s0.9-2,2-2h58c1.1,0,2,0.9,2,2S80.1,79,79,79z"/>
	<path fill="#FFFFFF" d="M56.8,88.7H43.2c-1.1,0-2-0.9-2-2s0.9-2,2-2h13.7c1.1,0,2,0.9,2,2S58,88.7,56.8,88.7z"/>
</g>
</svg>
