<?xml version="1.0" encoding="utf-8"?>
<!-- Generator: Adobe Illustrator 22.0.1, SVG Export Plug-In . SVG Version: 6.00 Build 0)  -->
<svg version="1.1" id="Layer_1" xmlns="http://www.w3.org/2000/svg" xmlns:xlink="http://www.w3.org/1999/xlink" x="0px" y="0px"
	 viewBox="0 0 500 144" enable-background="new 0 0 500 144" xml:space="preserve">
<g>
	<g>
		<path fill="#FFFFFF" d="M217.2,66.7V47.1c0-1,0.7-1.8,1.7-1.9l12.1-1.5c1.1-0.1,2.1,0.8,2.1,1.9v52.7c0,1.1-0.9,1.9-1.9,1.9h-12.1
			c-1.1,0-1.9-0.9-1.9-1.9V76.9h-23.4v21.5c0,1.1-0.9,1.9-1.9,1.9h-12.1c-1.1,0-1.9-0.9-1.9-1.9V47.1c0-1,0.7-1.8,1.7-1.9l12.1-1.5
			c1.1-0.1,2.1,0.8,2.1,1.9v21H217.2z"/>
		<path fill="#FFFFFF" d="M249.8,98.3V47.1c0-1,0.7-1.8,1.7-1.9l12.1-1.5c1.1-0.1,2.1,0.8,2.1,1.9v52.7c0,1.1-0.9,1.9-1.9,1.9h-12.1
			C250.6,100.2,249.8,99.4,249.8,98.3z"/>
		<path fill="#FFFFFF" d="M393.7,48.4c-4.6-3.2-10.7-3.7-18.3-3.7h-22.7c-1.1,0-1.9,0.9-1.9,1.9v51.7c0,1.1,0.9,1.9,1.9,1.9h12.1
			c1.1,0,1.9-0.9,1.9-1.9V82.6h8.7c7.6,0,13.7-0.7,18.3-4c4.6-3.3,6.3-9,6.3-15.2C399.9,57.3,398.3,51.6,393.7,48.4z M375.5,73.3
			c-3.7,0-8.8,0-8.8,0V54c0,0,3.8-0.1,8.5-0.1c4.7,0,9.6,2,9.6,9.7C384.8,71.2,380.2,73.3,375.5,73.3z"/>
		<path fill="#FFFFFF" d="M412.2,98.3V47.1c0-1,0.7-1.8,1.7-1.9l12.1-1.5c1.1-0.1,2.1,0.8,2.1,1.9v52.7c0,1.1-0.9,1.9-1.9,1.9h-12.1
			C413.1,100.2,412.2,99.4,412.2,98.3z"/>
		<path fill="#FFFFFF" d="M483.6,44.7h11.9c1.1,0,1.7,1.2,1,2.1l-19.2,24.5l21.6,26.9c0.7,0.8,0.1,2.1-1,2.1h-14.3
			c-1.2,0-2.3-0.5-3-1.4l-13.6-17l-13,17c-0.7,0.9-1.8,1.5-3,1.5l-12.1,0c-1.1,0-1.7-1.2-1-2.1l21-26.5l-19.9-24.9
			c-0.7-0.8-0.1-2.1,1-2.1h14.2c1.2,0,2.3,0.5,3,1.4l12,15l11.4-15C481.2,45.2,482.4,44.7,483.6,44.7z"/>
		<path fill="#FFFFFF" d="M336.1,72.6c0-11-1.5-18.9-9-23.8c-5.1-3.3-11.7-5-19.6-5s-14.4,1.7-19.5,5c-7.5,4.9-9.1,12.9-9.1,23.8
			c0,11,1.5,18.9,9,23.8c4.2,2.7,9.3,4.3,15.3,4.8l5.9,9c2.8,4.3,7.5,6.8,12.6,6.8h6c1.1,0,1.9-0.9,1.9-1.9v-7.3
			c0-1.1-0.9-1.9-1.9-1.9h-6c-1.3,0-2.6-0.7-3.3-1.8l-2.2-3.4c4.1-0.8,7.7-2.2,10.8-4.2C334.5,91.5,336.1,83.6,336.1,72.6z
			 M307.4,91.9c-9.6,0-11.2-6.5-11.2-19.2c0-12.9,1.6-19.4,11.2-19.4c9.6,0,11.2,6.4,11.2,19.3C318.6,85.5,317,91.9,307.4,91.9z"/>
	</g>
	<g>
		<linearGradient id="SVGID_1_" gradientUnits="userSpaceOnUse" x1="23.4358" y1="26.1607" x2="140.3909" y2="26.1607">
			<stop  offset="0" style="stop-color:#2D39B2"/>
			<stop  offset="0.1119" style="stop-color:#2643B9"/>
			<stop  offset="0.3983" style="stop-color:#1856C6"/>
			<stop  offset="0.6915" style="stop-color:#1061CD"/>
			<stop  offset="1" style="stop-color:#0D65D0"/>
		</linearGradient>
		<path fill="url(#SVGID_1_)" d="M144.4,27.7c-15,11.5-32,19-49.8,22.3c-0.7,0.1-1.5,0.3-2.2,0.4c-13.1,2.2-26.5,2.2-39.6,0
			c-0.7-0.1-1.5-0.3-2.2-0.4C32.9,46.7,15.9,39.2,0.9,27.7L28.3,0.3c0,0,0,0,0,0c0,0,0,0,0,0c1.3,0.8,2.6,1.6,3.9,2.3
			c25,14.2,55.9,14.2,80.9,0c1.3-0.7,2.6-1.5,3.9-2.3L144.4,27.7z"/>
		<linearGradient id="SVGID_2_" gradientUnits="userSpaceOnUse" x1="31.6247" y1="117.839" x2="139.3089" y2="117.839">
			<stop  offset="0" style="stop-color:#2D39B2"/>
			<stop  offset="0.1119" style="stop-color:#2643B9"/>
			<stop  offset="0.3983" style="stop-color:#1856C6"/>
			<stop  offset="0.6915" style="stop-color:#1061CD"/>
			<stop  offset="1" style="stop-color:#0D65D0"/>
		</linearGradient>
		<path fill="url(#SVGID_2_)" d="M144.4,116.3l-9.7,9.7L117,143.7c-1.3-0.8-2.6-1.6-3.9-2.3c-25-14.2-55.9-14.2-80.9,0
			c-1.3,0.7-2.6,1.5-3.9,2.3c0,0,0,0,0,0c0,0,0,0,0,0L0.9,116.3c15-11.5,32-19,49.8-22.3c0.7-0.1,1.5-0.3,2.2-0.4
			c13.1-2.2,26.5-2.2,39.6,0c0.7,0.1,1.5,0.3,2.2,0.4C112.4,97.3,129.4,104.8,144.4,116.3z"/>
		<linearGradient id="SVGID_3_" gradientUnits="userSpaceOnUse" x1="47.3064" y1="136.6822" x2="113.8318" y2="136.6822">
			<stop  offset="0" style="stop-color:#004FC5"/>
			<stop  offset="0.3593" style="stop-color:#0153C9"/>
			<stop  offset="0.7004" style="stop-color:#065ED4"/>
			<stop  offset="1" style="stop-color:#0C6FE5"/>
		</linearGradient>
		<path fill="url(#SVGID_3_)" d="M117,142.6v1.1c-1.3-0.8-2.6-1.6-3.9-2.3c-25-14.2-55.9-14.2-80.9,0c-1.3,0.7-2.6,1.5-3.9,2.3v-1.1
			c1.3-0.8,2.6-1.6,3.9-2.3c25-14.2,55.9-14.2,80.9,0C114.4,141,115.7,141.8,117,142.6z"/>
		
			<linearGradient id="SVGID_4_" gradientUnits="userSpaceOnUse" x1="4745.6313" y1="2226.4995" x2="4832.9692" y2="2226.4995" gradientTransform="matrix(-1 0 0 -1 4858.1797 2233.8174)">
			<stop  offset="0" style="stop-color:#0087E7"/>
			<stop  offset="0.108" style="stop-color:#0575D7"/>
			<stop  offset="0.2797" style="stop-color:#0C5FC3"/>
			<stop  offset="0.4688" style="stop-color:#1050B5"/>
			<stop  offset="0.6869" style="stop-color:#1347AD"/>
			<stop  offset="1" style="stop-color:#1444AA"/>
		</linearGradient>
		<path fill="url(#SVGID_4_)" d="M28.3,1.4V0.3c1.3,0.8,2.6,1.6,3.9,2.3c25,14.2,55.9,14.2,80.9,0c1.3-0.7,2.6-1.5,3.9-2.3v1.1
			c-1.3,0.8-2.6,1.6-3.9,2.3c-25,14.2-55.9,14.2-80.9,0C30.9,3,29.6,2.2,28.3,1.4z"/>
		<linearGradient id="SVGID_5_" gradientUnits="userSpaceOnUse" x1="36.5774" y1="40.9291" x2="122.3344" y2="40.9291">
			<stop  offset="0" style="stop-color:#1444AA"/>
			<stop  offset="8.240521e-03" style="stop-color:#1445AB"/>
			<stop  offset="0.2364" style="stop-color:#1057C4"/>
			<stop  offset="0.4728" style="stop-color:#0E65D7"/>
			<stop  offset="0.7211" style="stop-color:#0C6CE1"/>
			<stop  offset="1" style="stop-color:#0C6FE5"/>
		</linearGradient>
		<path fill="url(#SVGID_5_)" d="M144.4,27.7c-0.8,1.3-1.6,2.6-2.3,3.9C127.6,42.2,111.2,49,94.2,52.2c-14.3,2.7-28.9,2.7-43.2,0
			C34.1,49,17.7,42.2,3.2,31.6c-0.7-1.3-1.5-2.6-2.3-3.9c15,11.5,32,19,49.8,22.3h0c0.7,0.1,1.5,0.3,2.2,0.4
			c13.1,2.2,26.5,2.2,39.6,0c0.7-0.1,1.5-0.3,2.2-0.4h0C112.4,46.7,129.4,39.2,144.4,27.7z"/>
		<linearGradient id="SVGID_6_" gradientUnits="userSpaceOnUse" x1="2.8776" y1="103.0709" x2="128.1611" y2="103.0709">
			<stop  offset="0" style="stop-color:#0C6FE5"/>
			<stop  offset="0.2789" style="stop-color:#0C6CE1"/>
			<stop  offset="0.5272" style="stop-color:#0E65D7"/>
			<stop  offset="0.7636" style="stop-color:#1057C4"/>
			<stop  offset="0.9918" style="stop-color:#1445AB"/>
			<stop  offset="1" style="stop-color:#1444AA"/>
		</linearGradient>
		<path fill="url(#SVGID_6_)" d="M144.4,116.3L144.4,116.3c-15-11.5-32-19-49.8-22.3h0c-0.7-0.1-1.5-0.3-2.2-0.4
			c-13.1-2.2-26.5-2.2-39.6,0c-0.7,0.1-1.5,0.3-2.2,0.4c-17.7,3.4-34.8,10.8-49.8,22.3c0.8-1.3,1.6-2.6,2.3-3.9
			C17.7,101.8,34.1,94.9,51,91.8c14.3-2.7,28.9-2.7,43.2,0c16.9,3.1,33.3,10,47.8,20.6C142.8,113.8,143.6,115.1,144.4,116.3z"/>
		<linearGradient id="SVGID_7_" gradientUnits="userSpaceOnUse" x1="118.4859" y1="138.2771" x2="118.4859" y2="-2.9942">
			<stop  offset="0" style="stop-color:#004FC5"/>
			<stop  offset="0.2119" style="stop-color:#0062D0"/>
			<stop  offset="0.5483" style="stop-color:#0087E7"/>
			<stop  offset="0.7543" style="stop-color:#047FE6"/>
			<stop  offset="0.9988" style="stop-color:#0C6FE5"/>
		</linearGradient>
		<path fill="url(#SVGID_7_)" d="M142.1,112.5c0.7,1.3,1.5,2.6,2.3,3.9l0,0l-9.7,9.7L117,143.7c-11.5-15-19-32-22.3-49.8
			c-0.1-0.7-0.3-1.5-0.4-2.2c-2.2-13.1-2.2-26.5,0-39.6c0.1-0.7,0.3-1.5,0.4-2.2C98,32.3,105.4,15.2,117,0.3l27.4,27.4
			c-0.8,1.3-1.6,2.6-2.3,3.9C127.9,56.6,127.9,87.4,142.1,112.5z"/>
		<linearGradient id="SVGID_8_" gradientUnits="userSpaceOnUse" x1="26.8096" y1="145.5509" x2="26.8096" y2="10.9693">
			<stop  offset="0" style="stop-color:#004FC5"/>
			<stop  offset="0.1068" style="stop-color:#0058CF"/>
			<stop  offset="0.2848" style="stop-color:#0070E8"/>
			<stop  offset="0.4145" style="stop-color:#0086FF"/>
			<stop  offset="1" style="stop-color:#00B4FF"/>
		</linearGradient>
		<path fill="url(#SVGID_8_)" d="M51,91.8c-0.1,0.7-0.3,1.5-0.4,2.2c-3.4,17.7-10.8,34.8-22.3,49.8l-16.3-16.3L0.9,116.3
			c0,0,0,0,0,0c0.8-1.3,1.6-2.6,2.3-3.9c14.2-25,14.2-55.9,0-80.9c-0.7-1.3-1.5-2.6-2.3-3.9L12,16.6L28.3,0.3
			c11.5,15,19,32,22.3,49.8h0c0.1,0.7,0.3,1.5,0.4,2.2C53.3,65.3,53.3,78.7,51,91.8z"/>
		<linearGradient id="SVGID_9_" gradientUnits="userSpaceOnUse" x1="103.7176" y1="133.0216" x2="103.7176" y2="6.9188">
			<stop  offset="0" style="stop-color:#0C6FE5"/>
			<stop  offset="0.2487" style="stop-color:#0B73E6"/>
			<stop  offset="0.4852" style="stop-color:#097EEB"/>
			<stop  offset="0.7168" style="stop-color:#0691F2"/>
			<stop  offset="0.944" style="stop-color:#01ACFC"/>
			<stop  offset="1" style="stop-color:#00B4FF"/>
		</linearGradient>
		<path fill="url(#SVGID_9_)" d="M94.6,94c3.4,17.7,10.8,34.8,22.3,49.8c-1.3-0.8-2.6-1.6-3.9-2.3c-10.6-14.5-17.5-30.9-20.6-47.8
			c-2.7-14.3-2.7-28.9,0-43.2c3.1-16.9,10-33.3,20.6-47.8c1.3-0.7,2.6-1.5,3.9-2.3c-11.5,15-19,32-22.3,49.8
			C91.9,64.5,91.9,79.5,94.6,94z"/>
		<linearGradient id="SVGID_10_" gradientUnits="userSpaceOnUse" x1="41.5789" y1="151.6924" x2="41.5789" y2="2.2031">
			<stop  offset="0" style="stop-color:#004FC5"/>
			<stop  offset="0.2748" style="stop-color:#0053C7"/>
			<stop  offset="0.5361" style="stop-color:#005ECE"/>
			<stop  offset="0.7912" style="stop-color:#0071DA"/>
			<stop  offset="1" style="stop-color:#0087E7"/>
		</linearGradient>
		<path fill="url(#SVGID_10_)" d="M52.8,93.6c-3.1,16.9-10,33.3-20.6,47.8c-1.3,0.7-2.6,1.5-3.9,2.3c11.5-15,19-32,22.3-49.8
			c2.7-14.5,2.7-29.5,0-44C47.3,32.3,39.9,15.2,28.3,0.3c1.3,0.8,2.6,1.6,3.9,2.3c10.6,14.5,17.5,30.9,20.6,47.8
			C55.5,64.7,55.5,79.3,52.8,93.6z"/>
	</g>
</g>
</svg>
